<?xml version="1.0" standalone="no"?>
<!DOCTYPE svg PUBLIC "-//W3C//DTD SVG 20010904//EN"
 "http://www.w3.org/TR/2001/REC-SVG-20010904/DTD/svg10.dtd">
<svg version="1.0" xmlns="http://www.w3.org/2000/svg"
 width="862.000000pt" height="614.000000pt" viewBox="0 0 862.000000 614.000000"
 preserveAspectRatio="xMidYMid meet">

<g transform="translate(0.000000,614.000000) scale(0.100000,-0.100000)"
fill="#000000" stroke="none">
<path d="M2600 5252 c0 -41 4 -54 18 -58 106 -34 193 -113 273 -250 26 -43
149 -268 274 -499 483 -892 559 -1030 569 -1037 19 -13 536 -10 536 3 0 6 -31
71 -69 143 -85 163 -391 747 -479 916 -35 69 -91 175 -122 235 -66 125 -90
197 -90 267 0 129 98 196 317 216 l78 7 3 55 3 55 -656 0 -655 0 0 -53z"/>
<path d="M4900 5254 l0 -52 68 -7 c200 -19 296 -50 360 -114 73 -73 90 -171
56 -324 -28 -122 -84 -247 -363 -805 -149 -297 -267 -543 -264 -546 4 -3 30
-6 58 -6 37 0 56 5 67 18 9 9 138 262 288 562 150 300 306 610 347 690 152
293 270 440 404 503 l69 32 -2 48 -3 49 -542 2 -543 2 0 -52z"/>
<path d="M3100 3061 c0 -5 32 -57 71 -117 l72 -108 -2 -67 c-2 -93 5 -119 35
-119 24 0 24 2 24 93 l0 92 51 75 c48 71 89 143 89 155 0 17 -42 1 -56 -22
-56 -90 -99 -153 -106 -153 -4 0 -35 41 -68 90 -49 73 -65 90 -85 90 -14 0
-25 -4 -25 -9z"/>
<path d="M3754 3045 c-59 -30 -90 -73 -104 -144 -32 -167 94 -290 247 -241
163 52 176 320 19 391 -56 25 -103 24 -162 -6z m145 -30 c59 -30 89 -156 57
-240 -10 -24 -32 -56 -49 -71 -27 -23 -38 -26 -81 -21 -40 3 -55 11 -77 35
-72 80 -57 261 23 300 33 15 94 14 127 -3z"/>
<path d="M4250 2920 c0 -170 9 -204 64 -243 25 -18 45 -22 103 -22 85 0 116
17 151 86 21 40 22 55 20 184 l-3 140 -25 0 -25 0 -2 -130 c0 -71 -2 -143 -2
-158 -1 -19 -13 -41 -35 -63 -41 -41 -97 -47 -140 -13 -45 36 -51 56 -56 214
-5 146 -6 150 -27 153 -23 3 -23 3 -23 -148z"/>
<path d="M4832 2863 c3 -206 3 -208 25 -211 21 -3 22 1 25 80 l3 83 36 3 c35
3 37 1 90 -80 43 -67 59 -84 82 -86 15 -2 27 -1 27 3 0 3 -22 39 -50 80 -27
41 -50 79 -50 84 0 5 13 18 29 27 80 47 65 172 -25 210 -19 8 -68 14 -114 14
l-80 0 2 -207z m188 149 c13 -11 23 -33 27 -59 5 -37 2 -45 -26 -73 -28 -28
-36 -31 -83 -28 l-53 3 -3 88 -3 87 60 0 c41 0 65 -5 81 -18z"/>
<path d="M5384 3056 c-42 -19 -64 -53 -64 -99 0 -50 34 -83 119 -115 95 -37
125 -89 76 -137 -36 -37 -97 -35 -137 5 -33 33 -63 36 -63 6 0 -50 102 -84
182 -61 59 17 93 53 93 97 0 55 -27 83 -124 129 -84 41 -91 46 -94 76 -4 45
26 73 78 73 31 0 47 -6 64 -25 34 -36 75 -31 60 8 -17 45 -131 70 -190 43z"/>
<path d="M4097 1987 c-8 -383 -22 -454 -105 -529 -44 -39 -118 -61 -247 -73
-120 -10 -115 -8 -115 -71 l0 -55 83 7 c109 10 1189 11 1295 0 l83 -7 -3 58
-3 58 -80 7 c-180 16 -283 57 -319 125 -44 86 -49 128 -55 453 l-6 315 -261 3
-261 2 -6 -293z"/>
</g>
</svg>
